<svg viewBox="0 0 400 300" xmlns="http://www.w3.org/2000/svg">
  <defs>
    <linearGradient id="tabletGradient" x1="0%" y1="0%" x2="100%" y2="100%">
      <stop offset="0%" stop-color="#ffffff"/>
      <stop offset="100%" stop-color="#f1f5f9"/>
    </linearGradient>
    <linearGradient id="blisterGradient" x1="0%" y1="0%" x2="100%" y2="100%">
      <stop offset="0%" stop-color="#e2e8f0"/>
      <stop offset="100%" stop-color="#cbd5e1"/>
    </linearGradient>
    <radialGradient id="pillShadow" cx="50%" cy="50%" r="50%">
      <stop offset="0%" stop-color="rgba(0,0,0,0.1)"/>
      <stop offset="100%" stop-color="rgba(0,0,0,0.3)"/>
    </radialGradient>
  </defs>
  
  <!-- Background -->
  <rect width="400" height="300" fill="#f8fafc"/>
  
  <!-- Blister Pack Background -->
  <rect x="50" y="50" width="300" height="200" rx="15" fill="url(#blisterGradient)" stroke="#94a3b8" stroke-width="2"/>
  
  <!-- Blister Cavities Grid -->
  <!-- Row 1 -->
  <ellipse cx="90" cy="90" rx="15" ry="8" fill="url(#pillShadow)"/>
  <ellipse cx="90" cy="90" rx="12" ry="6" fill="url(#tabletGradient)" stroke="#e2e8f0" stroke-width="1"/>
  <line x1="85" y1="90" x2="95" y2="90" stroke="#94a3b8" stroke-width="1"/>
  
  <ellipse cx="140" cy="90" rx="15" ry="8" fill="url(#pillShadow)"/>
  <ellipse cx="140" cy="90" rx="12" ry="6" fill="url(#tabletGradient)" stroke="#e2e8f0" stroke-width="1"/>
  <line x1="135" y1="90" x2="145" y2="90" stroke="#94a3b8" stroke-width="1"/>
  
  <ellipse cx="190" cy="90" rx="15" ry="8" fill="url(#pillShadow)"/>
  <ellipse cx="190" cy="90" rx="12" ry="6" fill="url(#tabletGradient)" stroke="#e2e8f0" stroke-width="1"/>
  <line x1="185" y1="90" x2="195" y2="90" stroke="#94a3b8" stroke-width="1"/>
  
  <ellipse cx="240" cy="90" rx="15" ry="8" fill="url(#pillShadow)"/>
  <ellipse cx="240" cy="90" rx="12" ry="6" fill="url(#tabletGradient)" stroke="#e2e8f0" stroke-width="1"/>
  <line x1="235" y1="90" x2="245" y2="90" stroke="#94a3b8" stroke-width="1"/>
  
  <ellipse cx="290" cy="90" rx="15" ry="8" fill="url(#pillShadow)"/>
  <ellipse cx="290" cy="90" rx="12" ry="6" fill="url(#tabletGradient)" stroke="#e2e8f0" stroke-width="1"/>
  <line x1="285" y1="90" x2="295" y2="90" stroke="#94a3b8" stroke-width="1"/>
  
  <!-- Row 2 -->
  <ellipse cx="90" cy="130" rx="15" ry="8" fill="url(#pillShadow)"/>
  <ellipse cx="90" cy="130" rx="12" ry="6" fill="url(#tabletGradient)" stroke="#e2e8f0" stroke-width="1"/>
  <line x1="85" y1="130" x2="95" y2="130" stroke="#94a3b8" stroke-width="1"/>
  
  <ellipse cx="140" cy="130" rx="15" ry="8" fill="url(#pillShadow)"/>
  <ellipse cx="140" cy="130" rx="12" ry="6" fill="url(#tabletGradient)" stroke="#e2e8f0" stroke-width="1"/>
  <line x1="135" y1="130" x2="145" y2="130" stroke="#94a3b8" stroke-width="1"/>
  
  <ellipse cx="190" cy="130" rx="15" ry="8" fill="url(#pillShadow)"/>
  <ellipse cx="190" cy="130" rx="12" ry="6" fill="url(#tabletGradient)" stroke="#e2e8f0" stroke-width="1"/>
  <line x1="185" y1="130" x2="195" y2="130" stroke="#94a3b8" stroke-width="1"/>
  
  <ellipse cx="240" cy="130" rx="15" ry="8" fill="url(#pillShadow)"/>
  <ellipse cx="240" cy="130" rx="12" ry="6" fill="url(#tabletGradient)" stroke="#e2e8f0" stroke-width="1"/>
  <line x1="235" y1="130" x2="245" y2="130" stroke="#94a3b8" stroke-width="1"/>
  
  <ellipse cx="290" cy="130" rx="15" ry="8" fill="url(#pillShadow)"/>
  <ellipse cx="290" cy="130" rx="12" ry="6" fill="url(#tabletGradient)" stroke="#e2e8f0" stroke-width="1"/>
  <line x1="285" y1="130" x2="295" y2="130" stroke="#94a3b8" stroke-width="1"/>
  
  <!-- Row 3 -->
  <ellipse cx="90" cy="170" rx="15" ry="8" fill="url(#pillShadow)"/>
  <ellipse cx="90" cy="170" rx="12" ry="6" fill="url(#tabletGradient)" stroke="#e2e8f0" stroke-width="1"/>
  <line x1="85" y1="170" x2="95" y2="170" stroke="#94a3b8" stroke-width="1"/>
  
  <ellipse cx="140" cy="170" rx="15" ry="8" fill="url(#pillShadow)"/>
  <ellipse cx="140" cy="170" rx="12" ry="6" fill="url(#tabletGradient)" stroke="#e2e8f0" stroke-width="1"/>
  <line x1="135" y1="170" x2="145" y2="170" stroke="#94a3b8" stroke-width="1"/>
  
  <ellipse cx="190" cy="170" rx="15" ry="8" fill="url(#pillShadow)"/>
  <ellipse cx="190" cy="170" rx="12" ry="6" fill="url(#tabletGradient)" stroke="#e2e8f0" stroke-width="1"/>
  <line x1="185" y1="170" x2="195" y2="170" stroke="#94a3b8" stroke-width="1"/>
  
  <ellipse cx="240" cy="170" rx="15" ry="8" fill="url(#pillShadow)"/>
  <ellipse cx="240" cy="170" rx="12" ry="6" fill="url(#tabletGradient)" stroke="#e2e8f0" stroke-width="1"/>
  <line x1="235" y1="170" x2="245" y2="170" stroke="#94a3b8" stroke-width="1"/>
  
  <ellipse cx="290" cy="170" rx="15" ry="8" fill="url(#pillShadow)"/>
  <ellipse cx="290" cy="170" rx="12" ry="6" fill="url(#tabletGradient)" stroke="#e2e8f0" stroke-width="1"/>
  <line x1="285" y1="170" x2="295" y2="170" stroke="#94a3b8" stroke-width="1"/>
  
  <!-- Row 4 -->
  <ellipse cx="90" cy="210" rx="15" ry="8" fill="url(#pillShadow)"/>
  <ellipse cx="90" cy="210" rx="12" ry="6" fill="url(#tabletGradient)" stroke="#e2e8f0" stroke-width="1"/>
  <line x1="85" y1="210" x2="95" y2="210" stroke="#94a3b8" stroke-width="1"/>
  
  <ellipse cx="140" cy="210" rx="15" ry="8" fill="url(#pillShadow)"/>
  <ellipse cx="140" cy="210" rx="12" ry="6" fill="url(#tabletGradient)" stroke="#e2e8f0" stroke-width="1"/>
  <line x1="135" y1="210" x2="145" y2="210" stroke="#94a3b8" stroke-width="1"/>
  
  <ellipse cx="190" cy="210" rx="15" ry="8" fill="url(#pillShadow)"/>
  <ellipse cx="190" cy="210" rx="12" ry="6" fill="url(#tabletGradient)" stroke="#e2e8f0" stroke-width="1"/>
  <line x1="185" y1="210" x2="195" y2="210" stroke="#94a3b8" stroke-width="1"/>
  
  <ellipse cx="240" cy="210" rx="15" ry="8" fill="url(#pillShadow)"/>
  <ellipse cx="240" cy="210" rx="12" ry="6" fill="url(#tabletGradient)" stroke="#e2e8f0" stroke-width="1"/>
  <line x1="235" y1="210" x2="245" y2="210" stroke="#94a3b8" stroke-width="1"/>
  
  <ellipse cx="290" cy="210" rx="15" ry="8" fill="url(#pillShadow)"/>
  <ellipse cx="290" cy="210" rx="12" ry="6" fill="url(#tabletGradient)" stroke="#e2e8f0" stroke-width="1"/>
  <line x1="285" y1="210" x2="295" y2="210" stroke="#94a3b8" stroke-width="1"/>
  
  <!-- Blister Pack Label -->
  <rect x="60" y="220" width="80" height="20" fill="rgba(255,255,255,0.9)" rx="3"/>
  <text x="100" y="233" text-anchor="middle" fill="#475569" font-family="Arial, sans-serif" font-size="10" font-weight="bold">TABLETS 500mg</text>
  
  <!-- Brand marking -->
  <text x="320" y="70" text-anchor="middle" fill="#64748b" font-family="Arial, sans-serif" font-size="8">UP</text>
</svg>