<?xml version="1.0" encoding="UTF-8"?>
<svg version="1.1" xmlns="http://www.w3.org/2000/svg" width="500" height="500">
<path d="M0 0 C165 0 330 0 500 0 C500 165 500 330 500 500 C335 500 170 500 0 500 C0 335 0 170 0 0 Z " fill="#FEFEFE" transform="translate(0,0)"/>
<path d="M0 0 C4.28437764 3.89488876 8.00302933 8.34660884 11.81640625 12.6953125 C13.82542683 15.05767358 13.82542683 15.05767358 16.2421875 16.203125 C18.83850417 18.85713759 18.55003043 21.30738049 18.60668945 24.92016602 C18.59210693 25.81276123 18.57752441 26.70535645 18.5625 27.625 C18.54932739 28.98226196 18.54932739 28.98226196 18.53588867 30.36694336 C18.34141189 36.71009911 17.72974563 42.34032468 13 47 C8.56048326 50.53850781 4.50131812 50.48633837 -0.9375 50.4375 C-1.72318359 50.45748047 -2.50886719 50.47746094 -3.31835938 50.49804688 C-8.6776291 50.49356213 -11.83149662 49.646682 -16 46 C-21.58214388 39.63673701 -21.68060889 32.00334446 -21.328125 23.8828125 C-19.9052922 13.82702442 -11.31081205 7.43997936 -3.87939453 1.30322266 C-2 0 -2 0 0 0 Z " fill="#3B8BD3" transform="translate(149,254)"/>
<path d="M0 0 C0.79994385 0.01474365 1.5998877 0.0294873 2.42407227 0.04467773 C7.49192384 0.25689759 11.47788742 0.87277202 15.71484375 3.84765625 C21.56045856 11.21539791 21.21092572 20.62455127 20.48291016 29.56347656 C19.82537225 33.35082315 17.99945389 35.2216603 14.9921875 37.42578125 C14.37601563 37.82152344 13.75984375 38.21726563 13.125 38.625 C12.279375 39.470625 11.43375 40.31625 10.5625 41.1875 C9.758125 41.991875 8.95375 42.79625 8.125 43.625 C7.63 44.17800781 7.135 44.73101562 6.625 45.30078125 C5.0625 47 5.0625 47 2.125 49.625 C-4.51212115 49.08721615 -10.16569775 42.08094615 -14.44140625 37.5234375 C-19.68522499 31.01580628 -19.42194706 24.25054204 -18.73046875 16.2421875 C-17.78374976 10.08170756 -15.73717835 5.47768285 -10.65917969 1.57128906 C-7.24562885 -0.23918207 -3.78665226 -0.11281732 0 0 Z " fill="#3C8BD3" transform="translate(146.875,192.375)"/>
<path d="M0 0 C5.00227139 1.3211864 8.14498042 4.03891144 11.36669922 7.97509766 C12.80242915 11.47500871 13.03950578 14.73153617 13.02685547 18.46337891 C13.02516357 19.17389404 13.02347168 19.88440918 13.02172852 20.61645508 C12.8390412 25.94249288 11.7685321 29.21437971 8.26513672 33.17041016 C7.67087891 33.65896484 7.07662109 34.14751953 6.46435547 34.65087891 C5.79791016 35.20130859 5.13146484 35.75173828 4.44482422 36.31884766 C-0.13992554 38.36786426 -4.57067499 38.16387621 -9.53564453 38.15087891 C-10.52048828 38.17923828 -11.50533203 38.20759766 -12.52001953 38.23681641 C-19.75831287 38.25637936 -19.75831287 38.25637936 -23.50439453 35.33837891 C-24.17470703 34.45150391 -24.84501953 33.56462891 -25.53564453 32.65087891 C-26.14408203 32.04244141 -26.75251953 31.43400391 -27.37939453 30.80712891 C-28.52848768 29.65803575 -29.67408387 28.50543914 -30.81689453 27.35009766 C-31.89511215 26.28413251 -32.99663896 25.24072945 -34.12939453 24.23291016 C-35.53564453 22.96337891 -35.53564453 22.96337891 -37.53564453 20.65087891 C-36.82881428 13.95404924 -30.21531116 8.43138834 -25.56298828 4.09228516 C-18.18288913 -1.75657401 -8.97149886 -1.33472435 0 0 Z " fill="#3B8BD3" transform="translate(191.53564453125,229.34912109375)"/>
<path d="M0 0 C1.95693521 1.751742 3.47381623 3.4903553 5.01171875 5.61328125 C5.89859375 6.47953125 6.78546875 7.34578125 7.69921875 8.23828125 C8.46234375 9.02203125 9.22546875 9.80578125 10.01171875 10.61328125 C10.93984375 11.54140625 11.86796875 12.46953125 12.82421875 13.42578125 C13.54609375 14.14765625 14.26796875 14.86953125 15.01171875 15.61328125 C11.3020784 23.58657036 4.54440657 31.09886252 -2.98828125 35.61328125 C-10.35232665 37.77554506 -20.06856137 38.02454995 -27.08935547 34.58349609 C-30.69582206 32.18453914 -33.34987932 29.69460507 -34.98828125 25.61328125 C-35.4139537 22.78690383 -35.45305971 20.03010059 -35.42578125 17.17578125 C-35.44576172 16.43779297 -35.46574219 15.69980469 -35.48632812 14.93945312 C-35.48168006 9.71037573 -34.38480202 6.78001677 -30.98828125 2.61328125 C-23.89552749 -3.61974479 -8.35509266 -3.87719986 0 0 Z " fill="#3B8AD2" transform="translate(126.98828125,231.38671875)"/>
<path d="M0 0 C1.32 0 2.64 0 4 0 C4 12.21 4 24.42 4 37 C2.68 37 1.36 37 0 37 C-0.33 36.34 -0.66 35.68 -1 35 C-1.70125 35.495 -2.4025 35.99 -3.125 36.5 C-6.51524386 38.26882288 -8.22446543 38.53936208 -12 38 C-15.97490188 36.05151869 -17.68605354 34.55463874 -19.875 30.6875 C-21.45305821 25.51497586 -21.7398368 21.88658383 -19.75 16.8125 C-16.63136456 11.80040733 -16.63136456 11.80040733 -14 10 C-8.91504522 9.24945317 -5.63137395 9.68431302 -1 12 C-0.67 8.04 -0.34 4.08 0 0 Z " fill="#464C59" transform="translate(368,207)"/>
<path d="M0 0 C18 0 18 0 24 4 C26.66836411 8.00254616 26.8340238 11.29313299 26 16 C23.81840855 18.75569447 22.12822506 20.43588747 19 22 C16.44612508 22.07173806 13.92723239 22.09287732 11.375 22.0625 C8.94125 22.041875 6.5075 22.02125 4 22 C4 26.95 4 31.9 4 37 C2.68 37 1.36 37 0 37 C0 24.79 0 12.58 0 0 Z " fill="#3D4452" transform="translate(226,252)"/>
<path d="M0 0 C1.65 0 3.3 0 5 0 C5.33 0.66 5.66 1.32 6 2 C6.99 1.34 7.98 0.68 9 0 C16.06542056 -0.56074766 16.06542056 -0.56074766 19.5 1.5 C19.995 1.995 20.49 2.49 21 3 C21.495 2.505 21.99 2.01 22.5 1.5 C25.87783744 -0.52670246 29.15106474 -0.95471636 33 0 C35.58766865 2.08451086 36.86642881 3.24539461 37.45410156 6.56542969 C37.4331543 7.50805664 37.41220703 8.45068359 37.390625 9.421875 C37.37773437 10.44667969 37.36484375 11.47148437 37.3515625 12.52734375 C37.31804687 13.59082031 37.28453125 14.65429688 37.25 15.75 C37.23195313 16.82894531 37.21390625 17.90789062 37.1953125 19.01953125 C37.14821415 21.68058788 37.082456 24.33984254 37 27 C35.68 27 34.36 27 33 27 C32.97494385 26.36908447 32.9498877 25.73816895 32.92407227 25.08813477 C32.80845863 22.24603175 32.68557684 19.40428917 32.5625 16.5625 C32.52318359 15.56927734 32.48386719 14.57605469 32.44335938 13.55273438 C32.40146484 12.60849609 32.35957031 11.66425781 32.31640625 10.69140625 C32.26141968 9.37958374 32.26141968 9.37958374 32.20532227 8.04125977 C32.21818934 6.0072598 32.21818934 6.0072598 31 5 C26.34911285 4.69476038 26.34911285 4.69476038 22 6 C21.67 12.93 21.34 19.86 21 27 C19.35 27 17.7 27 16 27 C15.67 19.74 15.34 12.48 15 5 C8.67082039 4.47825081 8.67082039 4.47825081 6 6 C5.67 12.93 5.34 19.86 5 27 C3.35 27 1.7 27 0 27 C0 18.09 0 9.18 0 0 Z " fill="#515763" transform="translate(331,262)"/>
<path d="M0 0 C4.20475482 1.6997945 6.20472472 3.8425204 8 8 C8 10.31 8 12.62 8 15 C1.07 15 -5.86 15 -13 15 C-10.5797509 20.63106761 -10.5797509 20.63106761 -8 23 C-3.05423265 23.32431261 0.49016424 23.25491788 5 21 C5 22.32 5 23.64 5 25 C0.46139393 27.65674502 -2.7417577 28.65728029 -8 28 C-13.08643801 25.26114877 -16.17004027 22.4898792 -18 17 C-18.66573255 11.34127336 -17.39462442 8.29688837 -14.38671875 3.69921875 C-10.4546246 -1.11898112 -5.69639858 -0.58331121 0 0 Z " fill="#454B58" transform="translate(335,217)"/>
<path d="M0 0 C4.51315789 2.02631579 4.51315789 2.02631579 6 5 C6.08426094 6.6674606 6.10725143 8.33825187 6.09765625 10.0078125 C6.09443359 10.99394531 6.09121094 11.98007812 6.08789062 12.99609375 C6.07951172 14.02863281 6.07113281 15.06117188 6.0625 16.125 C6.05798828 17.16527344 6.05347656 18.20554687 6.04882812 19.27734375 C6.03701952 21.85161962 6.02055075 24.42578146 6 27 C4.68 27 3.36 27 2 27 C1.67 26.34 1.34 25.68 1 25 C-0.051875 25.7425 -0.051875 25.7425 -1.125 26.5 C-4.53516525 28.27921665 -6.20553658 28.61950423 -10 28 C-15.50619612 24.73706897 -15.50619612 24.73706897 -16.55078125 21.0625 C-16.81273098 17.11080129 -16.21876473 15.31820325 -13.9375 12 C-10.23305758 9.47782644 -8.40834824 9.38128446 -4 10 C-0.5625 11.5 -0.5625 11.5 2 13 C1.67 10.36 1.34 7.72 1 5 C-0.43534841 4.7773254 -1.87345525 4.57238094 -3.3125 4.375 C-4.11300781 4.25898438 -4.91351563 4.14296875 -5.73828125 4.0234375 C-8.28723215 3.78466593 -8.28723215 3.78466593 -11 6 C-13.1875 5.625 -13.1875 5.625 -15 5 C-15 4.34 -15 3.68 -15 3 C-10.57212181 -0.83749443 -5.5521854 -0.69288356 0 0 Z " fill="#404654" transform="translate(390,262)"/>
<path d="M0 0 C4.04787268 0.93636135 5.36181684 2.19294624 7.71875 5.62890625 C8.31851948 9.4210817 8.19039785 13.11451249 8.03125 16.94140625 C8.00869141 17.96814453 7.98613281 18.99488281 7.96289062 20.05273438 C7.90412575 22.57962415 7.82202849 25.1035088 7.71875 27.62890625 C6.39875 27.62890625 5.07875 27.62890625 3.71875 27.62890625 C3.71875 26.96890625 3.71875 26.30890625 3.71875 25.62890625 C2.8525 26.12390625 1.98625 26.61890625 1.09375 27.12890625 C-2.50225908 28.72713251 -4.41007641 29.20546402 -8.28125 28.62890625 C-10.98115662 26.82896851 -12.8231365 25.54513325 -14.28125 22.62890625 C-14.71875 19.31640625 -14.71875 19.31640625 -14.28125 15.62890625 C-11.69937207 12.59519968 -10.12807552 10.96279561 -6.20703125 10.25390625 C-2.41124238 10.14164632 -0.46776705 10.50456155 2.71875 12.62890625 C2.9689657 9.71256496 2.9689657 9.71256496 2.71875 6.62890625 C-0.7898896 4.28981318 -2.15214433 4.21599568 -6.28125 4.62890625 C-9.09905534 6.01775873 -9.09905534 6.01775873 -11.28125 7.62890625 C-11.94125 6.63890625 -12.60125 5.64890625 -13.28125 4.62890625 C-9.26410098 0.1961901 -5.63483233 0.13453954 0 0 Z " fill="#4B515E" transform="translate(299.28125,261.37109375)"/>
<path d="M0 0 C1.32 0 2.64 0 4 0 C4.01458252 0.72590332 4.02916504 1.45180664 4.04418945 2.19970703 C4.11894859 5.50865732 4.2155179 8.81662952 4.3125 12.125 C4.33505859 13.26710937 4.35761719 14.40921875 4.38085938 15.5859375 C4.57791048 23.7766585 4.57791048 23.7766585 8 31 C10.45382134 32.22691067 12.19984103 32.20175931 14.9375 32.25 C16.25041016 32.28867188 16.25041016 32.28867188 17.58984375 32.328125 C20.45753546 31.93770992 21.25539055 31.25322599 23 29 C24.36839363 26.26321275 24.21634818 23.95735576 24.31640625 20.8984375 C24.35830078 19.68671875 24.40019531 18.475 24.44335938 17.2265625 C24.48267578 15.95554688 24.52199219 14.68453125 24.5625 13.375 C24.60568359 12.09625 24.64886719 10.8175 24.69335938 9.5 C24.79969886 6.33344652 24.90172833 3.16681247 25 0 C26.65 0 28.3 0 30 0 C30.08738991 4.37487331 30.140524 8.74952078 30.1875 13.125 C30.21263672 14.3625 30.23777344 15.6 30.26367188 16.875 C30.27333984 18.07382813 30.28300781 19.27265625 30.29296875 20.5078125 C30.3086792 21.60754395 30.32438965 22.70727539 30.34057617 23.84033203 C29.87788989 28.13286672 28.28147054 31.3690375 25.625 34.75 C21.21232558 38.14436493 16.43276841 38.68309858 11 38 C6.30005971 36.28271412 3.79040501 34.13393334 1 30 C-0.09911549 26.70265354 -0.1139456 24.27041255 -0.09765625 20.80078125 C-0.09443359 19.59228516 -0.09121094 18.38378906 -0.08789062 17.13867188 C-0.07951172 15.87603516 -0.07113281 14.61339844 -0.0625 13.3125 C-0.05573242 11.40114258 -0.05573242 11.40114258 -0.04882812 9.45117188 C-0.03702873 6.30073436 -0.02056597 3.15039051 0 0 Z " fill="#434A57" transform="translate(226,207)"/>
<path d="M0 0 C1.32 0 2.64 0 4 0 C4.33 4.29 4.66 8.58 5 13 C6.32 12.01 7.64 11.02 9 10 C11.21875 9.56640625 11.21875 9.56640625 13.5 9.5625 C14.2528125 9.54316406 15.005625 9.52382813 15.78125 9.50390625 C18.88848223 10.19865712 20.0017893 11.55449434 22 14 C22.45410156 16.56542969 22.45410156 16.56542969 22.390625 19.421875 C22.37128906 20.95908203 22.37128906 20.95908203 22.3515625 22.52734375 C22.31804687 23.59082031 22.28453125 24.65429688 22.25 25.75 C22.23195313 26.82894531 22.21390625 27.90789062 22.1953125 29.01953125 C22.14821415 31.68058788 22.082456 34.33984254 22 37 C20.68 37 19.36 37 18 37 C17.97494385 36.36908447 17.9498877 35.73816895 17.92407227 35.08813477 C17.80845863 32.24603175 17.68557684 29.40428917 17.5625 26.5625 C17.52318359 25.56927734 17.48386719 24.57605469 17.44335938 23.55273438 C17.40146484 22.60849609 17.35957031 21.66425781 17.31640625 20.69140625 C17.27974854 19.81685791 17.24309082 18.94230957 17.20532227 18.04125977 C17.21818934 16.0072598 17.21818934 16.0072598 16 15 C10.12353969 14.53668563 10.12353969 14.53668563 5 17 C4.49297483 19.12106795 4.49297483 19.12106795 4.48828125 21.5703125 C4.45283203 22.46621094 4.41738281 23.36210937 4.38085938 24.28515625 C4.35830078 25.22230469 4.33574219 26.15945313 4.3125 27.125 C4.27833984 28.06988281 4.24417969 29.01476562 4.20898438 29.98828125 C4.12635888 32.32540253 4.05726012 34.66214191 4 37 C2.68 37 1.36 37 0 37 C0 24.79 0 12.58 0 0 Z " fill="#3F4553" transform="translate(257,252)"/>
<path d="M0 0 C2.75166978 0.6449226 4.05526632 1.39209784 6 3.46875 C6.56640625 6.71875 6.56640625 6.71875 6.5625 10.46875 C6.58441406 11.70625 6.60632813 12.94375 6.62890625 14.21875 C6 17.46875 6 17.46875 3.65625 19.37890625 C0.4552786 20.69224599 -1.57223041 20.97926888 -5 20.46875 C-7.84470117 18.16223553 -9.79259118 16.1994236 -10.23828125 12.48046875 C-10.3642309 8.53625591 -10.26184732 6.00335495 -8.5 2.40625 C-5.46148174 0.05139835 -3.7409278 -0.058452 0 0 Z " fill="#FBFAFB" transform="translate(362,220.53125)"/>
<path d="M0 0 C1.32 0 2.64 0 4 0 C4.33 0.99 4.66 1.98 5 3 C5.474375 2.505 5.94875 2.01 6.4375 1.5 C10.10224484 -0.64521649 13.85258015 -0.92732803 18 0 C20.5989109 2.08002904 21.86563917 3.24093355 22.45410156 6.56542969 C22.42268066 7.97937012 22.42268066 7.97937012 22.390625 9.421875 C22.37128906 10.95908203 22.37128906 10.95908203 22.3515625 12.52734375 C22.31804687 13.59082031 22.28453125 14.65429688 22.25 15.75 C22.23195313 16.82894531 22.21390625 17.90789062 22.1953125 19.01953125 C22.14821415 21.68058788 22.082456 24.33984254 22 27 C20.68 27 19.36 27 18 27 C17.97494385 26.36908447 17.9498877 25.73816895 17.92407227 25.08813477 C17.80845863 22.24603175 17.68557684 19.40428917 17.5625 16.5625 C17.52318359 15.56927734 17.48386719 14.57605469 17.44335938 13.55273438 C17.40146484 12.60849609 17.35957031 11.66425781 17.31640625 10.69140625 C17.27974854 9.81685791 17.24309082 8.94230957 17.20532227 8.04125977 C17.21818934 6.0072598 17.21818934 6.0072598 16 5 C10.12353969 4.53668563 10.12353969 4.53668563 5 7 C4.49297483 9.12106795 4.49297483 9.12106795 4.48828125 11.5703125 C4.45283203 12.46621094 4.41738281 13.36210937 4.38085938 14.28515625 C4.35830078 15.22230469 4.33574219 16.15945312 4.3125 17.125 C4.27833984 18.06988281 4.24417969 19.01476562 4.20898438 19.98828125 C4.12635888 22.32540253 4.05726012 24.66214191 4 27 C2.68 27 1.36 27 0 27 C0 18.09 0 9.18 0 0 Z " fill="#414755" transform="translate(263,217)"/>
<path d="M0 0 C12.59717314 -0.27385159 12.59717314 -0.27385159 16 2 C17.54163175 5.0832635 17.29747535 7.60878099 17 11 C14.62655781 13.54173027 13.25349554 13.97703845 9.765625 14.29296875 C8.60546875 14.25816406 7.4453125 14.22335937 6.25 14.1875 C4.1875 14.125625 2.125 14.06375 0 14 C0 9.38 0 4.76 0 0 Z " fill="#F4F4F5" transform="translate(230,256)"/>
<path d="M0 0 C1.32 0 2.64 0 4 0 C4 2.31 4 4.62 4 7 C5.65 7 7.3 7 9 7 C9 8.32 9 9.64 9 11 C7.35 11 5.7 11 4 11 C4.33 17.27 4.66 23.54 5 30 C6.65 30.33 8.3 30.66 10 31 C10 31.99 10 32.98 10 34 C6.6875 34.6875 6.6875 34.6875 3 35 C1.2878418 33.82495117 1.2878418 33.82495117 0 32 C-0.34057617 29.73168945 -0.34057617 29.73168945 -0.29296875 27.11328125 C-0.28330078 26.17548828 -0.27363281 25.23769531 -0.26367188 24.27148438 C-0.23853516 23.29501953 -0.21339844 22.31855469 -0.1875 21.3125 C-0.17396484 20.32443359 -0.16042969 19.33636719 -0.14648438 18.31835938 C-0.11112203 15.87835769 -0.06177033 13.43945281 0 11 C-1.65 11 -3.3 11 -5 11 C-5 9.68 -5 8.36 -5 7 C-3.35 7 -1.7 7 0 7 C0 4.69 0 2.38 0 0 Z " fill="#424956" transform="translate(305,210)"/>
<path d="M0 0 C1.65 0 3.3 0 5 0 C5 0.99 5 1.98 5 3 C5.763125 2.505 6.52625 2.01 7.3125 1.5 C10 0 10 0 13 0 C13 1.32 13 2.64 13 4 C9.535 5.485 9.535 5.485 6 7 C5.67 13.6 5.34 20.2 5 27 C3.35 27 1.7 27 0 27 C0 18.09 0 9.18 0 0 Z " fill="#585D69" transform="translate(314,262)"/>
<path d="M0 0 C4.04787268 0.93636135 5.36181684 2.19294624 7.71875 5.62890625 C8.31851948 9.4210817 8.19039785 13.11451249 8.03125 16.94140625 C8.00869141 17.96814453 7.98613281 18.99488281 7.96289062 20.05273438 C7.90412575 22.57962415 7.82202849 25.1035088 7.71875 27.62890625 C6.72875 27.62890625 5.73875 27.62890625 4.71875 27.62890625 C4.71875 26.63890625 4.71875 25.64890625 4.71875 24.62890625 C3.39875 24.29890625 2.07875 23.96890625 0.71875 23.62890625 C1.37875 23.29890625 2.03875 22.96890625 2.71875 22.62890625 C2.79949203 20.00329516 2.8591123 17.38014949 2.90625 14.75390625 C2.93138672 14.00753906 2.95652344 13.26117188 2.98242188 12.4921875 C3.0486264 10.06668797 3.0486264 10.06668797 2.71875 6.62890625 C-0.7898896 4.28981318 -2.15214433 4.21599568 -6.28125 4.62890625 C-9.09905534 6.01775873 -9.09905534 6.01775873 -11.28125 7.62890625 C-11.94125 6.63890625 -12.60125 5.64890625 -13.28125 4.62890625 C-9.26410098 0.1961901 -5.63483233 0.13453954 0 0 Z " fill="#3E4552" transform="translate(299.28125,261.37109375)"/>
<path d="M0 0 C1.32 0 2.64 0 4 0 C5.04743552 12.44031111 4.83694728 24.54879972 4 37 C2.68 37 1.36 37 0 37 C0 24.79 0 12.58 0 0 Z " fill="#373E4C" transform="translate(257,252)"/>
<path d="M0 0 C1.65 0 3.3 0 5 0 C5.33 0.66 5.66 1.32 6 2 C7.32 1.67 8.64 1.34 10 1 C8.25 4.875 8.25 4.875 6 6 C5.67 12.93 5.34 19.86 5 27 C3.35 27 1.7 27 0 27 C0 18.09 0 9.18 0 0 Z " fill="#575C68" transform="translate(331,262)"/>
<path d="M0 0 C7.38395722 -0.49226381 7.38395722 -0.49226381 10.109375 1.68554688 C12.42292206 4.51773 12.47083407 5.81246663 12.390625 9.421875 C12.37773437 10.44667969 12.36484375 11.47148437 12.3515625 12.52734375 C12.31804687 13.59082031 12.28453125 14.65429688 12.25 15.75 C12.23195313 16.82894531 12.21390625 17.90789062 12.1953125 19.01953125 C12.14821415 21.68058788 12.082456 24.33984254 12 27 C10.68 27 9.36 27 8 27 C7.97494385 26.36908447 7.9498877 25.73816895 7.92407227 25.08813477 C7.80845863 22.24603175 7.68557684 19.40428917 7.5625 16.5625 C7.52318359 15.56927734 7.48386719 14.57605469 7.44335938 13.55273438 C7.38051758 12.13637695 7.38051758 12.13637695 7.31640625 10.69140625 C7.27974854 9.81685791 7.24309082 8.94230957 7.20532227 8.04125977 C7.21818934 6.0072598 7.21818934 6.0072598 6 5 C4.65252916 4.76924918 3.29622435 4.58846937 1.9375 4.4375 C0.638125 4.293125 -0.66125 4.14875 -2 4 C-1.34 2.68 -0.68 1.36 0 0 Z " fill="#454C59" transform="translate(356,262)"/>
<path d="M0 0 C1.17369141 0.16435547 1.17369141 0.16435547 2.37109375 0.33203125 C3.15613281 0.42871094 3.94117188 0.52539062 4.75 0.625 C6.80859375 1.14453125 6.80859375 1.14453125 8.80859375 3.14453125 C9.12109375 6.14453125 9.12109375 6.14453125 8.80859375 9.14453125 C5.00403794 11.68090179 2.26911844 11.73926788 -2.19140625 11.14453125 C-4.19140625 9.95703125 -4.19140625 9.95703125 -5.19140625 8.14453125 C-5.56640625 5.64453125 -5.56640625 5.64453125 -5.19140625 3.14453125 C-3.54491555 0.92670308 -2.79803504 0.18454064 0 0 Z " fill="#F5F4F6" transform="translate(383.19140625,274.85546875)"/>
<path d="M0 0 C2.375 1.125 2.375 1.125 4 3 C4.4375 6.0625 4.4375 6.0625 4 9 C0.19544419 11.53637054 -2.53947531 11.59473663 -7 11 C-9 9.8125 -9 9.8125 -10 8 C-10.4375 5.5 -10.4375 5.5 -10 3 C-7.0294951 -0.31325547 -4.3010419 -0.53763024 0 0 Z " fill="#F6F5F6" transform="translate(299,275)"/>
<path d="M0 0 C2.9375 1.5 2.9375 1.5 5 3 C2.46739788 3.77926219 0.55921323 3.99118426 -2.125 3.9375 C-5.13239112 3.67134345 -5.13239112 3.67134345 -7 6 C-7.16677282 9.58343976 -7.16677282 9.58343976 -7 13 C-6.28972656 13.04898437 -5.57945312 13.09796875 -4.84765625 13.1484375 C-3.46900391 13.26058594 -3.46900391 13.26058594 -2.0625 13.375 C-1.14597656 13.44460938 -0.22945313 13.51421875 0.71484375 13.5859375 C1.84599609 13.79089844 1.84599609 13.79089844 3 14 C3.33 14.66 3.66 15.32 4 16 C0.57192418 18.10958512 -2.00823581 18.55884699 -6 18 C-11.50619612 14.73706897 -11.50619612 14.73706897 -12.55078125 11.0625 C-12.81273098 7.11080129 -12.21876473 5.31820325 -9.9375 2 C-6.25125882 -0.50978123 -4.38261849 -0.62608836 0 0 Z " fill="#494F5C" transform="translate(386,272)"/>
<path d="M0 0 C3.34265205 1.20706879 3.94704566 1.92056849 6 5 C6 6.32 6 7.64 6 9 C0.39 9 -5.22 9 -11 9 C-9.59172182 1.95860908 -7.41533298 -0.92691662 0 0 Z " fill="#F6F6F7" transform="translate(333,220)"/>
<path d="M0 0 C1.32 0 2.64 0 4 0 C4 8.91 4 17.82 4 27 C2.68 27 1.36 27 0 27 C0 18.09 0 9.18 0 0 Z " fill="#444A57" transform="translate(293,217)"/>
<path d="M0 0 C0.66 0 1.32 0 2 0 C2.25477428 3.4361064 2.47439003 6.87357801 2.6875 10.3125 C2.76033203 11.28896484 2.83316406 12.26542969 2.90820312 13.27148438 C2.96298828 14.20927734 3.01777344 15.14707031 3.07421875 16.11328125 C3.13182373 16.97735596 3.18942871 17.84143066 3.2487793 18.73168945 C2.94195888 21.52920512 2.09639044 22.21689 0 24 C-0.2475 24.61875 -0.495 25.2375 -0.75 25.875 C-2.70040662 29.19069125 -5.82192934 30.9266063 -9 33 C-9.66 32.67 -10.32 32.34 -11 32 C-10.38125 31.7525 -9.7625 31.505 -9.125 31.25 C-6.55750184 29.73970696 -6.28184271 28.63908792 -5 26 C-4.15953125 25.35289062 -3.3190625 24.70578125 -2.453125 24.0390625 C1.14742175 19.57851254 0.55472958 15.7364207 0.3125 10.1875 C0.28994141 9.20845703 0.26738281 8.22941406 0.24414062 7.22070312 C0.18539727 4.81222545 0.10332129 2.40690922 0 0 Z " fill="#DCEFF9" transform="translate(166,203)"/>
<path d="M0 0 C0.93779297 0.00322266 1.87558594 0.00644531 2.84179688 0.00976562 C4.30649414 0.02233398 4.30649414 0.02233398 5.80078125 0.03515625 C6.78884766 0.03966797 7.77691406 0.04417969 8.79492188 0.04882812 C11.23443599 0.06061322 13.67382814 0.07706614 16.11328125 0.09765625 C16.44328125 0.75765625 16.77328125 1.41765625 17.11328125 2.09765625 C10.18328125 1.76765625 3.25328125 1.43765625 -3.88671875 1.09765625 C-4.21671875 2.41765625 -4.54671875 3.73765625 -4.88671875 5.09765625 C-7.5955121 6.45205293 -9.89605143 6.16267076 -12.88671875 6.09765625 C-8.59751916 1.57660804 -6.21423512 -0.03766203 0 0 Z " fill="#468CCA" transform="translate(107.88671875,229.90234375)"/>
<path d="M0 0 C0.75410156 0.04833984 1.50820312 0.09667969 2.28515625 0.14648438 C3.45111328 0.2305957 3.45111328 0.2305957 4.640625 0.31640625 C5.82978516 0.3947168 5.82978516 0.3947168 7.04296875 0.47460938 C8.99256497 0.60379949 10.94165386 0.7406059 12.890625 0.87890625 C12.890625 1.20890625 12.890625 1.53890625 12.890625 1.87890625 C11.73304688 1.89308594 10.57546875 1.90726563 9.3828125 1.921875 C7.84371128 1.96879882 6.30465001 2.01704607 4.765625 2.06640625 C4.00507813 2.07220703 3.24453125 2.07800781 2.4609375 2.08398438 C-3.38340378 2.31070451 -6.03744306 3.65616202 -10.109375 7.87890625 C-11.50757012 10.53035445 -11.50757012 10.53035445 -12.109375 12.87890625 C-12.439375 12.87890625 -12.769375 12.87890625 -13.109375 12.87890625 C-13.45309611 9.99164895 -13.61373556 7.76001806 -12.13671875 5.1796875 C-8.46622583 0.54386617 -5.68418205 -0.38755787 0 0 Z " fill="#CFE8F4" transform="translate(142.109375,191.12109375)"/>
<path d="M0 0 C7.59 0 15.18 0 23 0 C23 0.66 23 1.32 23 2 C22.01604248 2.03758423 22.01604248 2.03758423 21.01220703 2.07592773 C18.04959817 2.1917326 15.08731969 2.31452886 12.125 2.4375 C11.09246094 2.47681641 10.05992187 2.51613281 8.99609375 2.55664062 C8.00996094 2.59853516 7.02382812 2.64042969 6.0078125 2.68359375 C5.09660645 2.72025146 4.18540039 2.75690918 3.24658203 2.79467773 C0.96516519 2.86577065 0.96516519 2.86577065 -1 4 C-0.67 2.68 -0.34 1.36 0 0 Z " fill="#CEE8F5" transform="translate(170,228)"/>
<path d="M0 0 C0.99 0.33 1.98 0.66 3 1 C2.36191406 1.40605469 1.72382813 1.81210937 1.06640625 2.23046875 C-2.66320865 5.14550317 -5.51267515 7.68861009 -6.52441406 12.48730469 C-7.17805238 18.64185956 -7.17671347 24.81841061 -7 31 C-7.33 31 -7.66 31 -8 31 C-8.11594584 27.06274674 -8.18716464 23.12593077 -8.25 19.1875 C-8.28351563 18.06794922 -8.31703125 16.94839844 -8.3515625 15.79492188 C-8.36445312 14.72177734 -8.37734375 13.64863281 -8.390625 12.54296875 C-8.41157227 11.55321045 -8.43251953 10.56345215 -8.45410156 9.54370117 C-8 7 -8 7 -6.10058594 5.15356445 C-4 4 -4 4 -2 4 C-2 3.34 -2 2.68 -2 2 C-1.34 2 -0.68 2 0 2 C0 1.34 0 0.68 0 0 Z " fill="#CFE9F5" transform="translate(136,262)"/>
<path d="M0 0 C4.28324091 2.51407619 6.64531705 4.12314139 8 9 C7.01 9.33 6.02 9.66 5 10 C4.67 8.68 4.34 7.36 4 6 C2.35 5.67 0.7 5.34 -1 5 C-0.67 3.35 -0.34 1.7 0 0 Z " fill="#4E90CD" transform="translate(195,231)"/>
<path d="M0 0 C1.98 0 3.96 0 6 0 C4.39441516 1.92536938 3.52230522 2.91074167 1.00708008 3.34057617 C0.26868896 3.32486572 -0.46970215 3.30915527 -1.23046875 3.29296875 C-2.03291016 3.28330078 -2.83535156 3.27363281 -3.66210938 3.26367188 C-4.49548828 3.23853516 -5.32886719 3.21339844 -6.1875 3.1875 C-7.03248047 3.17396484 -7.87746094 3.16042969 -8.74804688 3.14648438 C-10.83230384 3.11115799 -12.91623277 3.05735139 -15 3 C-15 2.67 -15 2.34 -15 2 C-10.05 1.67 -5.1 1.34 0 1 C0 0.67 0 0.34 0 0 Z " fill="#5292CE" transform="translate(154,301)"/>
<path d="M0 0 C1.98 0.495 1.98 0.495 4 1 C3.67 2.65 3.34 4.3 3 6 C1.68 5.67 0.36 5.34 -1 5 C-0.67 3.35 -0.34 1.7 0 0 Z " fill="#515763" transform="translate(293,207)"/>
<path d="M0 0 C0.33 0 0.66 0 1 0 C1.3125 2.8125 1.3125 2.8125 1 6 C-1.375 7.9375 -1.375 7.9375 -4 9 C-4.66 8.67 -5.32 8.34 -6 8 C-5.02471263 6.66382648 -4.04466681 5.3311249 -3.0625 4 C-2.24458984 2.88625 -2.24458984 2.88625 -1.41015625 1.75 C-0.94480469 1.1725 -0.47945312 0.595 0 0 Z " fill="#D1EAF6" transform="translate(203,256)"/>
<path d="M0 0 C2.31 0 4.62 0 7 0 C7 0.66 7 1.32 7 2 C7.66 2.33 8.32 2.66 9 3 C8.67 3.99 8.34 4.98 8 6 C6.5 4.625 6.5 4.625 5 3 C5 2.34 5 1.68 5 1 C2.525 2.485 2.525 2.485 0 4 C0 2.68 0 1.36 0 0 Z " fill="#D4EBF6" transform="translate(144,253)"/>
<path d="M0 0 C0 1.32 0 2.64 0 4 C-2.31 4.66 -4.62 5.32 -7 6 C-4.84615385 0 -4.84615385 0 0 0 Z " fill="#3F4553" transform="translate(327,262)"/>
<path d="M0 0 C2.5654594 2.5654594 2.54046087 4.47686668 3 8 C0.69 6.02 -1.62 4.04 -4 2 C-2.68 1.34 -1.36 0.68 0 0 Z " fill="#5296CE" transform="translate(143,233)"/>
<path d="M0 0 C0 3.57575896 -1.08840607 5.05295935 -3 8 C-4.32 7.67 -5.64 7.34 -7 7 C-4.69 4.69 -2.38 2.38 0 0 Z " fill="#5895C8" transform="translate(171,230)"/>
<path d="M0 0 C0.99 0.33 1.98 0.66 3 1 C3 1.66 3 2.32 3 3 C4.32 3 5.64 3 7 3 C7.33 4.32 7.66 5.64 8 7 C4.59679258 5.98823563 3.24274669 5.35156418 1.1875 2.375 C0.795625 1.59125 0.40375 0.8075 0 0 Z " fill="#5694C7" transform="translate(131,296)"/>
<path d="M0 0 C1.65 0.33 3.3 0.66 5 1 C3.35 2.65 1.7 4.3 0 6 C-0.66 5.34 -1.32 4.68 -2 4 C-1.34 4 -0.68 4 0 4 C0 2.68 0 1.36 0 0 Z " fill="#478EC6" transform="translate(195,260)"/>
<path d="M0 0 C0.99 0 1.98 0 3 0 C3.33 1.98 3.66 3.96 4 6 C2.02 6.66 0.04 7.32 -2 8 C-1.2265625 7.13375 -1.2265625 7.13375 -0.4375 6.25 C1.26505193 4.12172477 1.26505193 4.12172477 0.6875 1.75 C0.460625 1.1725 0.23375 0.595 0 0 Z " fill="#E1F2FA" transform="translate(140,245)"/>
<path d="M0 0 C0.99 0.33 1.98 0.66 3 1 C2.071875 2.1446875 2.071875 2.1446875 1.125 3.3125 C-1.05597052 5.99625809 -1.05597052 5.99625809 -3 9 C-3.36923077 3.46153846 -3.36923077 3.46153846 -1.5 1.125 C-1.005 0.75375 -0.51 0.3825 0 0 Z " fill="#DAEFF9" transform="translate(132,195)"/>
<path d="M0 0 C0.99 0.33 1.98 0.66 3 1 C2.21625 1.763125 1.4325 2.52625 0.625 3.3125 C-2.07257717 5.90891805 -2.07257717 5.90891805 -4 9 C-4 7.35 -4 5.7 -4 4 C-3.01 3.67 -2.02 3.34 -1 3 C-0.67 2.01 -0.34 1.02 0 0 Z " fill="#DDF3F9" transform="translate(157,241)"/>
<path d="M0 0 C0.33 0.99 0.66 1.98 1 3 C-0.75 5.0625 -0.75 5.0625 -3 7 C-4.32 6.67 -5.64 6.34 -7 6 C-4.69 4.02 -2.38 2.04 0 0 Z " fill="#D0E8F5" transform="translate(154,236)"/>
<path d="M0 0 C0.625 1.875 0.625 1.875 1 4 C0.34 4.66 -0.32 5.32 -1 6 C-3.125 5.625 -3.125 5.625 -5 5 C-3.35 3.35 -1.7 1.7 0 0 Z " fill="#4C8FC7" transform="translate(137,264)"/>
<path d="M0 0 C0.66 0.99 1.32 1.98 2 3 C0.1875 4.5625 0.1875 4.5625 -2 6 C-2.99 5.67 -3.98 5.34 -5 5 C-3.35 3.35 -1.7 1.7 0 0 Z " fill="#DDF0F8" transform="translate(137,253)"/>
<path d="M0 0 C0.99 0.33 1.98 0.66 3 1 C-0.465 3.97 -0.465 3.97 -4 7 C-4 6.01 -4 5.02 -4 4 C-3.34 4 -2.68 4 -2 4 C-2 3.01 -2 2.02 -2 1 C-1.34 0.67 -0.68 0.34 0 0 Z " fill="#E0F5FB" transform="translate(164,234)"/>
<path d="M0 0 C0 0.66 0 1.32 0 2 C-3.6441774 4.4294516 -5.71241272 4.16179575 -10 4 C-8.66666667 3.33333333 -7.33333333 2.66666667 -6 2 C-5.29875 1.62875 -4.5975 1.2575 -3.875 0.875 C-2 0 -2 0 0 0 Z " fill="#E0F3F9" transform="translate(197,265)"/>
<path d="M0 0 C2.475 0.495 2.475 0.495 5 1 C5 1.99 5 2.98 5 4 C5.66 4 6.32 4 7 4 C6.67 4.99 6.34 5.98 6 7 C4.02 4.69 2.04 2.38 0 0 Z " fill="#5D9BCD" transform="translate(129,224)"/>
</svg>
